<svg width="128" height="128" viewBox="0 0 128 128" fill="none" xmlns="http://www.w3.org/2000/svg">
<path d="M73.9161 14C75.9707 14 77.4546 15.3697 77.4546 17.4243C77.4546 18.3375 76.998 19.2507 76.4273 19.8214L75.4 21.077L76.4273 22.2184C76.998 22.7891 77.4546 23.5882 77.4546 24.5013C77.4546 25.4145 76.998 26.4418 76.4273 27.0125L75.4 28.1539L76.4273 29.4095C76.998 29.9803 77.4546 30.7793 77.4546 31.6924C77.4546 32.6056 76.998 33.5187 76.4273 34.0895L75.2858 35.3451L76.4273 36.4865C76.998 37.0572 77.4546 37.9704 77.4546 38.8835C77.4546 40.9381 75.9707 42.5362 73.9161 42.5362C71.8615 42.5362 70.3776 40.9381 70.3776 38.8835C70.3776 37.9704 70.72 37.0572 71.2908 36.4865L72.3181 35.3451L71.2908 34.0895C70.72 33.5187 70.3776 32.6056 70.3776 31.6924C70.3776 31.1217 70.4918 30.551 70.72 30.0944L73.1171 25.1862L68.323 27.8115C67.8664 28.0398 67.2957 28.1539 66.725 28.1539C64.6704 28.1539 63.1865 26.7842 63.1865 24.7296V24.5013C63.1865 23.9306 63.3006 23.5882 63.5289 23.1316L63.9855 21.9901L65.127 21.4194C65.5835 21.1911 66.1543 21.077 66.725 21.077C67.2957 21.077 67.8664 21.1911 68.323 21.4194L73.1171 23.8164L70.72 19.0224C70.4918 18.5658 70.3776 17.9951 70.3776 17.4243C70.3776 15.3697 71.8615 14 73.9161 14ZM59.648 14C61.7026 14 63.0724 15.3697 63.0724 17.4243C63.0724 17.9951 62.9582 18.5658 62.7299 19.0224L62.1592 20.1638L61.246 20.6204C60.7895 20.8487 60.2187 20.9628 59.648 20.9628C58.7349 20.9628 57.7075 20.7345 57.1368 20.1638L55.9954 19.0224L54.7398 20.1638C54.1691 20.7345 53.3701 20.9628 52.4569 20.9628C51.5437 20.9628 50.6306 20.7345 50.0599 20.1638L48.9184 19.0224L47.6628 20.1638C47.0921 20.7345 46.2931 20.9628 45.3799 20.9628C44.4668 20.9628 43.5536 20.7345 42.9829 20.1638L41.8414 19.0224L40.4717 20.1638C39.901 20.7345 39.102 20.9628 38.1888 20.9628C37.2756 20.9628 36.3625 20.7345 35.7918 20.1638L34.5362 19.0224L33.3947 20.1638C32.824 20.7345 31.7967 20.9628 30.8835 20.9628C30.3128 20.9628 29.8562 20.8487 29.3997 20.6204L28.3724 20.1638L27.8016 19.1365C27.5733 18.6799 27.3451 18.1092 27.3451 17.5385V17.4243C27.3451 15.3697 28.8289 14 30.8835 14C31.7967 14 32.824 14.2283 33.3947 14.799L34.5362 15.9405L35.7918 14.799C36.3625 14.2283 37.1615 14 38.0747 14C38.9878 14 39.901 14.2283 40.4717 14.799L41.6131 15.9405L42.9829 14.799C43.5536 14.2283 44.3526 14 45.2658 14C46.1789 14 47.0921 14.2283 47.6628 14.799L48.9184 15.9405L50.0599 14.799C50.6306 14.2283 51.5437 14 52.4569 14C53.3701 14 54.1691 14.2283 54.7398 14.799L55.9954 15.9405L57.1368 14.799C57.7075 14.2283 58.5066 14 59.4197 14H59.648ZM23.8066 21.077C24.3773 21.077 24.948 21.1911 25.4046 21.4194L26.546 21.9901L27.1168 22.9033C27.3451 23.3599 27.3451 23.9306 27.3451 24.5013C27.3451 26.5559 25.8612 28.1539 23.8066 28.1539C23.2358 28.1539 22.6651 28.0398 22.2085 27.8115L21.2954 27.2408L20.6105 26.0993C20.3822 25.6428 20.3822 25.072 20.3822 24.5013C20.3822 22.4467 21.752 21.077 23.8066 21.077ZM16.7296 28.1539C17.3003 28.1539 17.7569 28.2681 18.2135 28.4964L19.3549 29.0671L19.9257 30.0944C20.1539 30.551 20.2681 31.1217 20.2681 31.6924C20.2681 32.6056 19.9257 33.5187 19.3549 34.0895L18.2135 35.2309L19.3549 36.4865C19.9257 37.0572 20.2681 37.8562 20.2681 38.7694C20.2681 39.6825 19.9257 40.5957 19.3549 41.1664L18.2135 42.3079L19.3549 43.6776C19.9257 44.2483 20.2681 45.0474 20.2681 45.9605C20.2681 46.8737 19.9257 47.7868 19.3549 48.3575L18.2135 49.499L19.3549 50.7546C19.9257 51.3253 20.2681 52.1243 20.2681 53.0375C20.2681 53.9506 19.9257 54.9779 19.3549 55.5487L18.2135 56.6901L19.3549 57.9457C19.9257 58.5164 20.2681 59.4296 20.2681 60.3427C20.2681 61.2559 19.9257 62.0549 19.3549 62.6256L18.2135 63.8812L19.3549 65.0227C19.9257 65.5934 20.2681 66.5066 20.2681 67.4197C20.2681 68.3329 19.9257 69.1319 19.3549 69.7026L18.2135 71.0723L19.3549 72.2138C19.9257 72.7845 20.2681 73.6977 20.2681 74.6108C20.2681 75.524 19.9257 76.323 19.3549 76.8937L18.2135 78.1493L19.3549 79.2908C19.9257 79.8615 20.2681 80.8888 20.2681 81.8019C20.2681 82.7151 19.9257 83.5141 19.3549 84.0848L18.2135 85.3404L19.3549 86.4819C19.9257 87.0526 20.2681 87.9658 20.2681 88.8789C20.2681 89.7921 19.9257 90.5911 19.3549 91.1618L18.2135 92.4174L19.3549 93.5588C19.9257 94.1296 20.2681 95.0427 20.2681 95.9559C20.2681 96.5266 20.1539 97.0973 19.9257 97.5539L19.3549 98.5812L18.2135 99.1519C17.7569 99.3802 17.3003 99.6085 16.7296 99.6085C14.675 99.6085 13.3053 98.0105 13.3053 95.9559C13.3053 95.3852 13.3053 94.9286 13.5336 94.472L16.0447 89.4496L11.1365 92.075C10.6799 92.3033 10.1092 92.3033 9.53849 92.3033C7.48388 92.3033 6 90.9335 6 88.8789C6 87.9658 6.34243 87.0526 6.91316 86.4819L7.94046 85.3404L6.91316 84.0848C6.34243 83.5141 6 82.7151 6 81.8019C6 80.8888 6.34243 79.8615 6.91316 79.2908L7.94046 78.1493L6.91316 76.8937C6.34243 76.323 6 75.524 6 74.6108C6 73.6977 6.34243 72.7845 6.91316 72.2138L8.0546 71.0723L6.91316 69.7026C6.34243 69.1319 6.11414 68.3329 6.11414 67.4197C6.11414 66.5066 6.34243 65.5934 6.91316 65.0227L8.0546 63.8812L6.91316 62.6256C6.34243 62.0549 6.11414 61.2559 6.11414 60.3427C6.11414 59.4296 6.34243 58.5164 6.91316 57.9457L8.0546 56.6901L6.91316 55.5487C6.34243 54.9779 6.11414 53.9506 6.11414 53.0375C6.11414 52.1243 6.34243 51.3253 6.91316 50.7546L8.0546 49.499L6.91316 48.3575C6.34243 47.7868 6 46.9878 6 46.0747C6 45.1615 6.34243 44.2483 6.91316 43.6776L7.94046 42.5362L6.91316 41.1664C6.34243 40.5957 6 39.6825 6 38.7694C6 36.7148 7.48388 35.3451 9.53849 35.3451C10.1092 35.3451 10.6799 35.4592 11.1365 35.6875L16.0447 38.1987L13.5336 33.4046C13.3053 32.948 13.3053 32.2631 13.3053 31.6924C13.3053 29.6378 14.675 28.1539 16.7296 28.1539ZM73.9161 85.3404C75.9707 85.3404 77.4546 86.8243 77.4546 88.8789C77.4546 89.7921 76.998 90.5911 76.4273 91.1618L75.2858 92.4174L76.4273 93.5588C76.998 94.1296 77.3404 95.0427 77.3404 95.9559C77.3404 96.869 76.998 97.6681 76.4273 98.2388L75.2858 99.6085L76.4273 100.75C76.998 101.321 77.3404 102.234 77.3404 103.147C77.3404 104.06 76.998 104.859 76.4273 105.43L75.2858 106.685L76.4273 107.827C76.998 108.398 77.3404 109.425 77.3404 110.338C77.3404 112.393 75.9707 113.877 73.9161 113.877C71.8615 113.877 70.3776 112.393 70.3776 110.338C70.3776 109.767 70.3776 109.197 70.6059 108.74L73.0029 103.832L68.323 106.229C67.8664 106.457 67.2957 106.571 66.725 106.571C66.1543 106.571 65.5835 106.457 65.127 106.229L63.9855 105.772L63.5289 104.631C63.3006 104.174 63.1865 103.718 63.1865 103.147C63.1865 101.092 64.5562 99.6085 66.6108 99.6085C67.1816 99.6085 67.8664 99.6085 68.323 99.8368L73.0029 102.462L70.6059 97.5539C70.3776 97.0973 70.3776 96.5266 70.3776 95.9559C70.3776 95.0427 70.6059 94.1296 71.1766 93.5588L72.3181 92.4174L71.1766 91.1618C70.6059 90.5911 70.3776 89.6779 70.3776 88.7648C70.3776 86.7102 71.8615 85.3404 73.9161 85.3404ZM23.8066 99.6085C25.8612 99.6085 27.3451 101.092 27.3451 103.147C27.3451 103.718 27.3451 104.288 27.1168 104.745L26.546 105.772L25.4046 106.229C24.948 106.457 24.3773 106.685 23.8066 106.685C21.752 106.685 20.3822 105.202 20.3822 103.147C20.3822 102.576 20.3822 102.006 20.6105 101.549L21.2954 100.408L22.2085 99.8368C22.6651 99.6085 23.2358 99.6085 23.8066 99.6085ZM59.648 106.685C60.2187 106.685 60.5612 106.8 61.0177 107.028L62.1592 107.599L62.7299 108.74C62.9582 109.197 63.0724 109.767 63.0724 110.338C63.0724 112.393 61.7026 113.877 59.648 113.877C58.7349 113.877 57.7075 113.42 57.1368 112.849L55.9954 111.822L54.7398 112.849C54.1691 113.42 53.3701 113.877 52.4569 113.877C51.5437 113.877 50.6306 113.42 50.0599 112.849L48.9184 111.708L47.6628 112.849C47.0921 113.42 46.2931 113.877 45.3799 113.877C44.4668 113.877 43.5536 113.42 42.9829 112.849L41.6131 111.822L40.4717 112.849C39.901 113.42 39.102 113.762 38.1888 113.762H38.0747C37.1615 113.762 36.3625 113.42 35.7918 112.849L34.5362 111.708L33.3947 112.849C32.824 113.42 31.7967 113.877 30.8835 113.877C28.8289 113.877 27.3451 112.393 27.3451 110.338C27.3451 109.767 27.5733 109.197 27.8016 108.74L28.3724 107.599L29.3997 107.028C29.8562 106.8 30.3128 106.685 30.8835 106.685C31.7967 106.685 32.824 107.028 33.3947 107.599L34.5362 108.74L35.7918 107.599C36.3625 107.028 37.1615 106.685 38.0747 106.685C38.9878 106.685 39.901 107.028 40.4717 107.599L41.6131 108.74L42.9829 107.599C43.5536 107.028 44.3526 106.685 45.2658 106.685C46.1789 106.685 47.0921 107.028 47.6628 107.599L48.9184 108.74L50.0599 107.599C50.6306 107.028 51.5437 106.685 52.4569 106.685C53.3701 106.685 54.1691 107.028 54.7398 107.599L55.9954 108.74L57.1368 107.599C57.7075 107.028 58.7349 106.685 59.648 106.685Z" fill="#C2410C"/>
<path d="M119.117 14C121.172 14 122.656 15.3697 122.656 17.4243C122.656 18.3375 122.199 19.2507 121.628 19.8214L120.601 21.077L121.628 22.2184C122.199 22.7891 122.656 23.5882 122.656 24.5013C122.656 25.4145 122.199 26.4418 121.628 27.0125L120.601 28.1539L121.628 29.4095C122.199 29.9803 122.656 30.7793 122.656 31.6924C122.656 32.6056 122.199 33.5187 121.628 34.0895L120.487 35.3451L121.628 36.4865C122.199 37.0572 122.656 37.9704 122.656 38.8835C122.656 40.9381 121.172 42.5362 119.117 42.5362C117.063 42.5362 115.579 40.9381 115.579 38.8835C115.579 37.9704 115.921 37.0572 116.492 36.4865L117.519 35.3451L116.492 34.0895C115.921 33.5187 115.579 32.6056 115.579 31.6924C115.579 31.1217 115.693 30.551 115.921 30.0944L118.318 25.1862L113.524 27.8115C113.068 28.0398 112.497 28.1539 111.926 28.1539C109.872 28.1539 108.388 26.7842 108.388 24.7296V24.5013C108.388 23.9306 108.502 23.5882 108.73 23.1316L109.187 21.9901L110.328 21.4194C110.785 21.1911 111.355 21.077 111.926 21.077C112.497 21.077 113.068 21.1911 113.524 21.4194L118.318 23.8164L115.921 19.0224C115.693 18.5658 115.579 17.9951 115.579 17.4243C115.579 15.3697 117.063 14 119.117 14ZM104.849 14C106.904 14 108.274 15.3697 108.274 17.4243C108.274 17.9951 108.159 18.5658 107.931 19.0224L107.36 20.1638L106.447 20.6204C105.991 20.8487 105.42 20.9628 104.849 20.9628C103.936 20.9628 102.909 20.7345 102.338 20.1638L101.197 19.0224L99.941 20.1638C99.3702 20.7345 98.5712 20.9628 97.6581 20.9628C96.7449 20.9628 95.8317 20.7345 95.261 20.1638L94.1196 19.0224L92.864 20.1638C92.2933 20.7345 91.4943 20.9628 90.5811 20.9628C89.6679 20.9628 88.7548 20.7345 88.1841 20.1638L87.0426 19.0224L85.6729 20.1638C85.1021 20.7345 84.3031 20.9628 83.39 20.9628C82.4768 20.9628 81.5637 20.7345 80.9929 20.1638L79.7373 19.0224L78.5959 20.1638C78.0252 20.7345 76.9979 20.9628 76.0847 20.9628C75.514 20.9628 75.0574 20.8487 74.6008 20.6204L73.5735 20.1638L73.0028 19.1365C72.7745 18.6799 72.5462 18.1092 72.5462 17.5385V17.4243C72.5462 15.3697 74.0301 14 76.0847 14C76.9979 14 78.0252 14.2283 78.5959 14.799L79.7373 15.9405L80.9929 14.799C81.5637 14.2283 82.3627 14 83.2758 14C84.189 14 85.1021 14.2283 85.6729 14.799L86.8143 15.9405L88.1841 14.799C88.7548 14.2283 89.5538 14 90.4669 14C91.3801 14 92.2933 14.2283 92.864 14.799L94.1196 15.9405L95.261 14.799C95.8317 14.2283 96.7449 14 97.6581 14C98.5712 14 99.3702 14.2283 99.941 14.799L101.197 15.9405L102.338 14.799C102.909 14.2283 103.708 14 104.621 14H104.849ZM69.0077 21.077C69.5785 21.077 70.1492 21.1911 70.6058 21.4194L71.7472 21.9901L72.3179 22.9033C72.5462 23.3599 72.5462 23.9306 72.5462 24.5013C72.5462 26.5559 71.0623 28.1539 69.0077 28.1539C68.437 28.1539 67.8663 28.0398 67.4097 27.8115L66.4966 27.2408L65.8117 26.0993C65.5834 25.6428 65.5834 25.072 65.5834 24.5013C65.5834 22.4467 66.9531 21.077 69.0077 21.077ZM61.9308 28.1539C62.5015 28.1539 62.9581 28.2681 63.4147 28.4964L64.5561 29.0671L65.1268 30.0944C65.3551 30.551 65.4693 31.1217 65.4693 31.6924C65.4693 32.6056 65.1268 33.5187 64.5561 34.0895L63.4147 35.2309L64.5561 36.4865C65.1268 37.0572 65.4693 37.8562 65.4693 38.7694C65.4693 39.6825 65.1268 40.5957 64.5561 41.1664L63.4147 42.3079L64.5561 43.6776C65.1268 44.2483 65.4693 45.0474 65.4693 45.9605C65.4693 46.8737 65.1268 47.7868 64.5561 48.3575L63.4147 49.499L64.5561 50.7546C65.1268 51.3253 65.4693 52.1243 65.4693 53.0375C65.4693 53.9506 65.1268 54.9779 64.5561 55.5487L63.4147 56.6901L64.5561 57.9457C65.1268 58.5164 65.4693 59.4296 65.4693 60.3427C65.4693 61.2559 65.1268 62.0549 64.5561 62.6256L63.4147 63.8812L64.5561 65.0227C65.1268 65.5934 65.4693 66.5066 65.4693 67.4197C65.4693 68.3329 65.1268 69.1319 64.5561 69.7026L63.4147 71.0723L64.5561 72.2138C65.1268 72.7845 65.4693 73.6977 65.4693 74.6108C65.4693 75.524 65.1268 76.323 64.5561 76.8937L63.4147 78.1493L64.5561 79.2908C65.1268 79.8615 65.4693 80.8888 65.4693 81.8019C65.4693 82.7151 65.1268 83.5141 64.5561 84.0848L63.4147 85.3404L64.5561 86.4819C65.1268 87.0526 65.4693 87.9658 65.4693 88.8789C65.4693 89.7921 65.1268 90.5911 64.5561 91.1618L63.4147 92.4174L64.5561 93.5588C65.1268 94.1296 65.4693 95.0427 65.4693 95.9559C65.4693 96.5266 65.3551 97.0973 65.1268 97.5539L64.5561 98.5812L63.4147 99.1519C62.9581 99.3802 62.5015 99.6085 61.9308 99.6085C59.8762 99.6085 58.5064 98.0105 58.5064 95.9559C58.5064 95.3852 58.5064 94.9286 58.7347 94.472L61.2459 89.4496L56.3377 92.075C55.8811 92.3033 55.3104 92.3033 54.7397 92.3033C52.6851 92.3033 51.2012 90.9335 51.2012 88.8789C51.2012 87.9658 51.5436 87.0526 52.1143 86.4819L53.1416 85.3404L52.1143 84.0848C51.5436 83.5141 51.2012 82.7151 51.2012 81.8019C51.2012 80.8888 51.5436 79.8615 52.1143 79.2908L53.1416 78.1493L52.1143 76.8937C51.5436 76.323 51.2012 75.524 51.2012 74.6108C51.2012 73.6977 51.5436 72.7845 52.1143 72.2138L53.2558 71.0723L52.1143 69.7026C51.5436 69.1319 51.3153 68.3329 51.3153 67.4197C51.3153 66.5066 51.5436 65.5934 52.1143 65.0227L53.2558 63.8812L52.1143 62.6256C51.5436 62.0549 51.3153 61.2559 51.3153 60.3427C51.3153 59.4296 51.5436 58.5164 52.1143 57.9457L53.2558 56.6901L52.1143 55.5487C51.5436 54.9779 51.3153 53.9506 51.3153 53.0375C51.3153 52.1243 51.5436 51.3253 52.1143 50.7546L53.2558 49.499L52.1143 48.3575C51.5436 47.7868 51.2012 46.9878 51.2012 46.0747C51.2012 45.1615 51.5436 44.2483 52.1143 43.6776L53.1416 42.5362L52.1143 41.1664C51.5436 40.5957 51.2012 39.6825 51.2012 38.7694C51.2012 36.7148 52.6851 35.3451 54.7397 35.3451C55.3104 35.3451 55.8811 35.4592 56.3377 35.6875L61.2459 38.1987L58.7347 33.4046C58.5064 32.948 58.5064 32.2631 58.5064 31.6924C58.5064 29.6378 59.8762 28.1539 61.9308 28.1539ZM119.117 85.3404C121.172 85.3404 122.656 86.8243 122.656 88.8789C122.656 89.7921 122.199 90.5911 121.628 91.1618L120.487 92.4174L121.628 93.5588C122.199 94.1296 122.542 95.0427 122.542 95.9559C122.542 96.869 122.199 97.6681 121.628 98.2388L120.487 99.6085L121.628 100.75C122.199 101.321 122.542 102.234 122.542 103.147C122.542 104.06 122.199 104.859 121.628 105.43L120.487 106.685L121.628 107.827C122.199 108.398 122.542 109.425 122.542 110.338C122.542 112.393 121.172 113.877 119.117 113.877C117.063 113.877 115.579 112.393 115.579 110.338C115.579 109.767 115.579 109.197 115.807 108.74L118.204 103.832L113.524 106.229C113.068 106.457 112.497 106.571 111.926 106.571C111.355 106.571 110.785 106.457 110.328 106.229L109.187 105.772L108.73 104.631C108.502 104.174 108.388 103.718 108.388 103.147C108.388 101.092 109.757 99.6085 111.812 99.6085C112.383 99.6085 113.068 99.6085 113.524 99.8368L118.204 102.462L115.807 97.5539C115.579 97.0973 115.579 96.5266 115.579 95.9559C115.579 95.0427 115.807 94.1296 116.378 93.5588L117.519 92.4174L116.378 91.1618C115.807 90.5911 115.579 89.6779 115.579 88.7648C115.579 86.7102 117.063 85.3404 119.117 85.3404ZM69.0077 99.6085C71.0623 99.6085 72.5462 101.092 72.5462 103.147C72.5462 103.718 72.5462 104.288 72.3179 104.745L71.7472 105.772L70.6058 106.229C70.1492 106.457 69.5785 106.685 69.0077 106.685C66.9531 106.685 65.5834 105.202 65.5834 103.147C65.5834 102.576 65.5834 102.006 65.8117 101.549L66.4966 100.408L67.4097 99.8368C67.8663 99.6085 68.437 99.6085 69.0077 99.6085ZM104.849 106.685C105.42 106.685 105.762 106.8 106.219 107.028L107.36 107.599L107.931 108.74C108.159 109.197 108.274 109.767 108.274 110.338C108.274 112.393 106.904 113.877 104.849 113.877C103.936 113.877 102.909 113.42 102.338 112.849L101.197 111.822L99.941 112.849C99.3702 113.42 98.5712 113.877 97.6581 113.877C96.7449 113.877 95.8317 113.42 95.261 112.849L94.1196 111.708L92.864 112.849C92.2933 113.42 91.4943 113.877 90.5811 113.877C89.6679 113.877 88.7548 113.42 88.1841 112.849L86.8143 111.822L85.6729 112.849C85.1021 113.42 84.3031 113.762 83.39 113.762H83.2758C82.3627 113.762 81.5637 113.42 80.9929 112.849L79.7373 111.708L78.5959 112.849C78.0252 113.42 76.9979 113.877 76.0847 113.877C74.0301 113.877 72.5462 112.393 72.5462 110.338C72.5462 109.767 72.7745 109.197 73.0028 108.74L73.5735 107.599L74.6008 107.028C75.0574 106.8 75.514 106.685 76.0847 106.685C76.9979 106.685 78.0252 107.028 78.5959 107.599L79.7373 108.74L80.9929 107.599C81.5637 107.028 82.3627 106.685 83.2758 106.685C84.189 106.685 85.1021 107.028 85.6729 107.599L86.8143 108.74L88.1841 107.599C88.7548 107.028 89.5538 106.685 90.4669 106.685C91.3801 106.685 92.2933 107.028 92.864 107.599L94.1196 108.74L95.261 107.599C95.8317 107.028 96.7449 106.685 97.6581 106.685C98.5712 106.685 99.3702 107.028 99.941 107.599L101.197 108.74L102.338 107.599C102.909 107.028 103.936 106.685 104.849 106.685Z" fill="#C2410C"/>
</svg>
